<mxfile host="app.diagrams.net" agent="Mozilla/5.0 (Windows NT 10.0; Win64; x64) AppleWebKit/537.36 (KHTML, like Gecko) Chrome/140.0.0.0 Safari/537.36" version="27.1.6">
  <diagram name="Strona-1" id="Q5_Xq8yu5SPTEJTIhaMh">
    <mxGraphModel dx="1869" dy="562" grid="1" gridSize="10" guides="1" tooltips="1" connect="1" arrows="1" fold="1" page="1" pageScale="1" pageWidth="827" pageHeight="1169" math="0" shadow="0">
      <root>
        <mxCell id="0" />
        <mxCell id="1" parent="0" />
        <mxCell id="RWWT-JLwFQPBc56C_yXg-10" value="" style="edgeStyle=orthogonalEdgeStyle;rounded=0;orthogonalLoop=1;jettySize=auto;html=1;" edge="1" parent="1" source="RWWT-JLwFQPBc56C_yXg-1" target="RWWT-JLwFQPBc56C_yXg-9">
          <mxGeometry relative="1" as="geometry" />
        </mxCell>
        <mxCell id="RWWT-JLwFQPBc56C_yXg-56" value="" style="edgeStyle=orthogonalEdgeStyle;rounded=0;orthogonalLoop=1;jettySize=auto;html=1;" edge="1" parent="1" source="RWWT-JLwFQPBc56C_yXg-1" target="RWWT-JLwFQPBc56C_yXg-55">
          <mxGeometry relative="1" as="geometry" />
        </mxCell>
        <mxCell id="RWWT-JLwFQPBc56C_yXg-94" style="edgeStyle=orthogonalEdgeStyle;rounded=0;orthogonalLoop=1;jettySize=auto;html=1;exitX=1;exitY=1;exitDx=0;exitDy=0;entryX=0;entryY=0.5;entryDx=0;entryDy=0;" edge="1" parent="1" source="RWWT-JLwFQPBc56C_yXg-1" target="RWWT-JLwFQPBc56C_yXg-93">
          <mxGeometry relative="1" as="geometry" />
        </mxCell>
        <mxCell id="RWWT-JLwFQPBc56C_yXg-1" value="Stacja pogodowa" style="ellipse;whiteSpace=wrap;html=1;aspect=fixed;" vertex="1" parent="1">
          <mxGeometry x="266" y="460" width="80" height="80" as="geometry" />
        </mxCell>
        <mxCell id="RWWT-JLwFQPBc56C_yXg-51" style="edgeStyle=orthogonalEdgeStyle;rounded=0;orthogonalLoop=1;jettySize=auto;html=1;exitX=1;exitY=0.5;exitDx=0;exitDy=0;" edge="1" parent="1" source="RWWT-JLwFQPBc56C_yXg-9" target="RWWT-JLwFQPBc56C_yXg-42">
          <mxGeometry relative="1" as="geometry" />
        </mxCell>
        <mxCell id="RWWT-JLwFQPBc56C_yXg-9" value="Dane środowiskowe" style="rounded=1;whiteSpace=wrap;html=1;" vertex="1" parent="1">
          <mxGeometry x="392" y="400" width="120" height="60" as="geometry" />
        </mxCell>
        <mxCell id="RWWT-JLwFQPBc56C_yXg-24" value="Temperatura" style="text;html=1;align=center;verticalAlign=middle;resizable=0;points=[];autosize=1;strokeColor=none;fillColor=none;" vertex="1" parent="1">
          <mxGeometry x="612" y="280" width="90" height="30" as="geometry" />
        </mxCell>
        <mxCell id="RWWT-JLwFQPBc56C_yXg-41" value="Wilgotność" style="text;html=1;align=center;verticalAlign=middle;resizable=0;points=[];autosize=1;strokeColor=none;fillColor=none;" vertex="1" parent="1">
          <mxGeometry x="612" y="330" width="80" height="30" as="geometry" />
        </mxCell>
        <mxCell id="RWWT-JLwFQPBc56C_yXg-42" value="Ciśnienie" style="text;html=1;align=center;verticalAlign=middle;resizable=0;points=[];autosize=1;strokeColor=none;fillColor=none;" vertex="1" parent="1">
          <mxGeometry x="617" y="415" width="70" height="30" as="geometry" />
        </mxCell>
        <mxCell id="RWWT-JLwFQPBc56C_yXg-43" value="Natężenie światła" style="text;html=1;align=center;verticalAlign=middle;resizable=0;points=[];autosize=1;strokeColor=none;fillColor=none;" vertex="1" parent="1">
          <mxGeometry x="617" y="530" width="120" height="30" as="geometry" />
        </mxCell>
        <mxCell id="RWWT-JLwFQPBc56C_yXg-44" value="Jakość powietrz-zanieczyszczenia" style="text;html=1;align=center;verticalAlign=middle;resizable=0;points=[];autosize=1;strokeColor=none;fillColor=none;" vertex="1" parent="1">
          <mxGeometry x="612" y="480" width="210" height="30" as="geometry" />
        </mxCell>
        <mxCell id="RWWT-JLwFQPBc56C_yXg-48" style="edgeStyle=orthogonalEdgeStyle;rounded=0;orthogonalLoop=1;jettySize=auto;html=1;exitX=1;exitY=0;exitDx=0;exitDy=0;entryX=0;entryY=0.667;entryDx=0;entryDy=0;entryPerimeter=0;" edge="1" parent="1" source="RWWT-JLwFQPBc56C_yXg-9" target="RWWT-JLwFQPBc56C_yXg-24">
          <mxGeometry relative="1" as="geometry" />
        </mxCell>
        <mxCell id="RWWT-JLwFQPBc56C_yXg-49" style="edgeStyle=orthogonalEdgeStyle;rounded=0;orthogonalLoop=1;jettySize=auto;html=1;exitX=1;exitY=0.25;exitDx=0;exitDy=0;entryX=0;entryY=0.333;entryDx=0;entryDy=0;entryPerimeter=0;" edge="1" parent="1" source="RWWT-JLwFQPBc56C_yXg-9" target="RWWT-JLwFQPBc56C_yXg-41">
          <mxGeometry relative="1" as="geometry" />
        </mxCell>
        <mxCell id="RWWT-JLwFQPBc56C_yXg-54" style="edgeStyle=orthogonalEdgeStyle;rounded=0;orthogonalLoop=1;jettySize=auto;html=1;exitX=1;exitY=1;exitDx=0;exitDy=0;entryX=0.002;entryY=0.74;entryDx=0;entryDy=0;entryPerimeter=0;" edge="1" parent="1" source="RWWT-JLwFQPBc56C_yXg-9" target="RWWT-JLwFQPBc56C_yXg-43">
          <mxGeometry relative="1" as="geometry" />
        </mxCell>
        <mxCell id="RWWT-JLwFQPBc56C_yXg-58" value="" style="edgeStyle=orthogonalEdgeStyle;rounded=0;orthogonalLoop=1;jettySize=auto;html=1;" edge="1" parent="1" source="RWWT-JLwFQPBc56C_yXg-55" target="RWWT-JLwFQPBc56C_yXg-57">
          <mxGeometry relative="1" as="geometry" />
        </mxCell>
        <mxCell id="RWWT-JLwFQPBc56C_yXg-60" value="" style="edgeStyle=orthogonalEdgeStyle;rounded=0;orthogonalLoop=1;jettySize=auto;html=1;" edge="1" parent="1" source="RWWT-JLwFQPBc56C_yXg-55" target="RWWT-JLwFQPBc56C_yXg-59">
          <mxGeometry relative="1" as="geometry" />
        </mxCell>
        <mxCell id="RWWT-JLwFQPBc56C_yXg-66" value="" style="edgeStyle=orthogonalEdgeStyle;rounded=0;orthogonalLoop=1;jettySize=auto;html=1;" edge="1" parent="1" source="RWWT-JLwFQPBc56C_yXg-55" target="RWWT-JLwFQPBc56C_yXg-65">
          <mxGeometry relative="1" as="geometry" />
        </mxCell>
        <mxCell id="RWWT-JLwFQPBc56C_yXg-55" value="Komponenty" style="rounded=1;whiteSpace=wrap;html=1;" vertex="1" parent="1">
          <mxGeometry x="80" y="470" width="120" height="60" as="geometry" />
        </mxCell>
        <mxCell id="RWWT-JLwFQPBc56C_yXg-70" value="" style="edgeStyle=orthogonalEdgeStyle;rounded=0;orthogonalLoop=1;jettySize=auto;html=1;" edge="1" parent="1" source="RWWT-JLwFQPBc56C_yXg-57" target="RWWT-JLwFQPBc56C_yXg-69">
          <mxGeometry relative="1" as="geometry" />
        </mxCell>
        <mxCell id="RWWT-JLwFQPBc56C_yXg-57" value="Płytka" style="rounded=0;whiteSpace=wrap;html=1;" vertex="1" parent="1">
          <mxGeometry x="80" y="590" width="120" height="60" as="geometry" />
        </mxCell>
        <mxCell id="RWWT-JLwFQPBc56C_yXg-78" style="edgeStyle=orthogonalEdgeStyle;rounded=0;orthogonalLoop=1;jettySize=auto;html=1;exitX=0;exitY=0;exitDx=0;exitDy=0;entryX=0;entryY=0.25;entryDx=0;entryDy=0;" edge="1" parent="1" source="RWWT-JLwFQPBc56C_yXg-59" target="RWWT-JLwFQPBc56C_yXg-73">
          <mxGeometry relative="1" as="geometry" />
        </mxCell>
        <mxCell id="RWWT-JLwFQPBc56C_yXg-79" style="edgeStyle=orthogonalEdgeStyle;rounded=0;orthogonalLoop=1;jettySize=auto;html=1;exitX=0.25;exitY=0;exitDx=0;exitDy=0;entryX=0;entryY=0.25;entryDx=0;entryDy=0;" edge="1" parent="1" source="RWWT-JLwFQPBc56C_yXg-59" target="RWWT-JLwFQPBc56C_yXg-75">
          <mxGeometry relative="1" as="geometry" />
        </mxCell>
        <mxCell id="RWWT-JLwFQPBc56C_yXg-80" style="edgeStyle=orthogonalEdgeStyle;rounded=0;orthogonalLoop=1;jettySize=auto;html=1;exitX=0.5;exitY=0;exitDx=0;exitDy=0;entryX=0;entryY=0.25;entryDx=0;entryDy=0;" edge="1" parent="1" source="RWWT-JLwFQPBc56C_yXg-59" target="RWWT-JLwFQPBc56C_yXg-77">
          <mxGeometry relative="1" as="geometry" />
        </mxCell>
        <mxCell id="RWWT-JLwFQPBc56C_yXg-59" value="Czujniki" style="rounded=0;whiteSpace=wrap;html=1;" vertex="1" parent="1">
          <mxGeometry x="80" y="340" width="120" height="60" as="geometry" />
        </mxCell>
        <mxCell id="RWWT-JLwFQPBc56C_yXg-63" style="edgeStyle=orthogonalEdgeStyle;rounded=0;orthogonalLoop=1;jettySize=auto;html=1;exitX=1;exitY=0.75;exitDx=0;exitDy=0;entryX=0.002;entryY=0.673;entryDx=0;entryDy=0;entryPerimeter=0;" edge="1" parent="1" source="RWWT-JLwFQPBc56C_yXg-9" target="RWWT-JLwFQPBc56C_yXg-44">
          <mxGeometry relative="1" as="geometry" />
        </mxCell>
        <mxCell id="RWWT-JLwFQPBc56C_yXg-86" style="edgeStyle=orthogonalEdgeStyle;rounded=0;orthogonalLoop=1;jettySize=auto;html=1;exitX=0;exitY=0.5;exitDx=0;exitDy=0;" edge="1" parent="1" source="RWWT-JLwFQPBc56C_yXg-65" target="RWWT-JLwFQPBc56C_yXg-83">
          <mxGeometry relative="1" as="geometry" />
        </mxCell>
        <mxCell id="RWWT-JLwFQPBc56C_yXg-90" style="edgeStyle=orthogonalEdgeStyle;rounded=0;orthogonalLoop=1;jettySize=auto;html=1;exitX=0.5;exitY=1;exitDx=0;exitDy=0;entryX=0.5;entryY=0;entryDx=0;entryDy=0;" edge="1" parent="1" source="RWWT-JLwFQPBc56C_yXg-65" target="RWWT-JLwFQPBc56C_yXg-87">
          <mxGeometry relative="1" as="geometry" />
        </mxCell>
        <mxCell id="RWWT-JLwFQPBc56C_yXg-92" style="edgeStyle=orthogonalEdgeStyle;rounded=0;orthogonalLoop=1;jettySize=auto;html=1;exitX=0.5;exitY=0;exitDx=0;exitDy=0;" edge="1" parent="1" source="RWWT-JLwFQPBc56C_yXg-65" target="RWWT-JLwFQPBc56C_yXg-91">
          <mxGeometry relative="1" as="geometry" />
        </mxCell>
        <mxCell id="RWWT-JLwFQPBc56C_yXg-65" value="Akcesoria (przewody, wyświetlacz, itp... )" style="rounded=0;whiteSpace=wrap;html=1;" vertex="1" parent="1">
          <mxGeometry x="-80" y="470" width="120" height="60" as="geometry" />
        </mxCell>
        <mxCell id="RWWT-JLwFQPBc56C_yXg-69" value="ESP32 płytka z ESP-WROOM-32 38-pin z układem CP2102 USB-C" style="text;whiteSpace=wrap;html=1;" vertex="1" parent="1">
          <mxGeometry x="80" y="710" width="390" height="40" as="geometry" />
        </mxCell>
        <mxCell id="RWWT-JLwFQPBc56C_yXg-73" value="Grove - czujnik czystości powietrza MP503 v1.3" style="text;whiteSpace=wrap;html=1;" vertex="1" parent="1">
          <mxGeometry x="190" y="140" width="290" height="40" as="geometry" />
        </mxCell>
        <mxCell id="RWWT-JLwFQPBc56C_yXg-75" value="Grove - LM358 czujnik natężenia światła otoczenia v1.2" style="text;whiteSpace=wrap;html=1;" vertex="1" parent="1">
          <mxGeometry x="190" y="190" width="330" height="40" as="geometry" />
        </mxCell>
        <mxCell id="RWWT-JLwFQPBc56C_yXg-77" value="AHT20 + BMP280 Czujnik Temperatury, wilgotności i ciśnienia Black" style="text;whiteSpace=wrap;html=1;" vertex="1" parent="1">
          <mxGeometry x="190" y="240" width="400" height="40" as="geometry" />
        </mxCell>
        <mxCell id="RWWT-JLwFQPBc56C_yXg-81" value="Przewody męsko-męskie" style="text;html=1;align=center;verticalAlign=middle;resizable=0;points=[];autosize=1;strokeColor=none;fillColor=none;" vertex="1" parent="1">
          <mxGeometry x="-290" y="370" width="160" height="30" as="geometry" />
        </mxCell>
        <mxCell id="RWWT-JLwFQPBc56C_yXg-82" value="Przewody żeńsko-żeńskie" style="text;html=1;align=center;verticalAlign=middle;resizable=0;points=[];autosize=1;strokeColor=none;fillColor=none;" vertex="1" parent="1">
          <mxGeometry x="-290" y="400" width="160" height="30" as="geometry" />
        </mxCell>
        <mxCell id="RWWT-JLwFQPBc56C_yXg-83" value="Przewody męsko-żeńskie" style="text;html=1;align=center;verticalAlign=middle;resizable=0;points=[];autosize=1;strokeColor=none;fillColor=none;" vertex="1" parent="1">
          <mxGeometry x="-280" y="430" width="160" height="30" as="geometry" />
        </mxCell>
        <mxCell id="RWWT-JLwFQPBc56C_yXg-84" style="edgeStyle=orthogonalEdgeStyle;rounded=0;orthogonalLoop=1;jettySize=auto;html=1;exitX=0;exitY=0;exitDx=0;exitDy=0;entryX=0.996;entryY=0.527;entryDx=0;entryDy=0;entryPerimeter=0;" edge="1" parent="1" source="RWWT-JLwFQPBc56C_yXg-65" target="RWWT-JLwFQPBc56C_yXg-81">
          <mxGeometry relative="1" as="geometry" />
        </mxCell>
        <mxCell id="RWWT-JLwFQPBc56C_yXg-85" style="edgeStyle=orthogonalEdgeStyle;rounded=0;orthogonalLoop=1;jettySize=auto;html=1;exitX=0;exitY=0.25;exitDx=0;exitDy=0;entryX=1.001;entryY=0.7;entryDx=0;entryDy=0;entryPerimeter=0;" edge="1" parent="1" source="RWWT-JLwFQPBc56C_yXg-65" target="RWWT-JLwFQPBc56C_yXg-82">
          <mxGeometry relative="1" as="geometry" />
        </mxCell>
        <mxCell id="RWWT-JLwFQPBc56C_yXg-87" value="Wyświetlacz TFT/LCD" style="text;html=1;align=center;verticalAlign=middle;whiteSpace=wrap;rounded=0;" vertex="1" parent="1">
          <mxGeometry x="-50" y="585" width="60" height="30" as="geometry" />
        </mxCell>
        <mxCell id="RWWT-JLwFQPBc56C_yXg-91" value="Przyciski ok. 7 szt." style="text;html=1;align=center;verticalAlign=middle;resizable=0;points=[];autosize=1;strokeColor=none;fillColor=none;" vertex="1" parent="1">
          <mxGeometry x="-80" y="400" width="120" height="30" as="geometry" />
        </mxCell>
        <mxCell id="RWWT-JLwFQPBc56C_yXg-98" value="" style="edgeStyle=orthogonalEdgeStyle;rounded=0;orthogonalLoop=1;jettySize=auto;html=1;" edge="1" parent="1" source="RWWT-JLwFQPBc56C_yXg-93" target="RWWT-JLwFQPBc56C_yXg-96">
          <mxGeometry relative="1" as="geometry" />
        </mxCell>
        <mxCell id="RWWT-JLwFQPBc56C_yXg-99" style="edgeStyle=orthogonalEdgeStyle;rounded=0;orthogonalLoop=1;jettySize=auto;html=1;exitX=0;exitY=1;exitDx=0;exitDy=0;entryX=0.5;entryY=0;entryDx=0;entryDy=0;" edge="1" parent="1" source="RWWT-JLwFQPBc56C_yXg-93" target="RWWT-JLwFQPBc56C_yXg-95">
          <mxGeometry relative="1" as="geometry" />
        </mxCell>
        <mxCell id="RWWT-JLwFQPBc56C_yXg-100" style="edgeStyle=orthogonalEdgeStyle;rounded=0;orthogonalLoop=1;jettySize=auto;html=1;exitX=1;exitY=1;exitDx=0;exitDy=0;entryX=0.5;entryY=0;entryDx=0;entryDy=0;" edge="1" parent="1" source="RWWT-JLwFQPBc56C_yXg-93" target="RWWT-JLwFQPBc56C_yXg-97">
          <mxGeometry relative="1" as="geometry" />
        </mxCell>
        <mxCell id="RWWT-JLwFQPBc56C_yXg-93" value="Oprogramowanie" style="rounded=1;whiteSpace=wrap;html=1;" vertex="1" parent="1">
          <mxGeometry x="540" y="650" width="120" height="60" as="geometry" />
        </mxCell>
        <mxCell id="RWWT-JLwFQPBc56C_yXg-95" value="Lokalnie LCD - Arduino IDE" style="rounded=0;whiteSpace=wrap;html=1;" vertex="1" parent="1">
          <mxGeometry x="380" y="780" width="120" height="60" as="geometry" />
        </mxCell>
        <mxCell id="RWWT-JLwFQPBc56C_yXg-96" value="W chmurze..." style="rounded=0;whiteSpace=wrap;html=1;" vertex="1" parent="1">
          <mxGeometry x="540" y="780" width="120" height="60" as="geometry" />
        </mxCell>
        <mxCell id="RWWT-JLwFQPBc56C_yXg-97" value="Własna aplikacja" style="rounded=0;whiteSpace=wrap;html=1;" vertex="1" parent="1">
          <mxGeometry x="692" y="780" width="120" height="60" as="geometry" />
        </mxCell>
      </root>
    </mxGraphModel>
  </diagram>
</mxfile>
